<?xml version="1.0" encoding="UTF-8"?>
<svg id="Layer_1" data-name="Layer 1" xmlns="http://www.w3.org/2000/svg" viewBox="0 0 90.93 50.4">
  <defs>
    <style>
      .cls-1 {
        fill: #7f74b5;
      }
    </style>
  </defs>
  <path class="cls-1" d="M1.94,50.4c-.53,0-.98-.19-1.37-.58-.38-.38-.58-.84-.58-1.37V1.94c0-.53.19-.98.58-1.37.38-.38.84-.58,1.37-.58h21.82c4.37,0,8.17.64,11.41,1.91,3.24,1.27,5.76,3.22,7.56,5.83,1.8,2.62,2.7,5.92,2.7,9.9s-.9,7.24-2.7,9.76c-1.8,2.52-4.32,4.37-7.56,5.54-3.24,1.18-7.04,1.76-11.41,1.76h-5.04v13.75c0,.53-.19.98-.58,1.37s-.84.58-1.37.58H1.94ZM18.36,21.38h5.04c.77,0,1.51-.3,2.23-.9.72-.6,1.08-1.6,1.08-2.99,0-.91-.23-1.82-.68-2.74-.46-.91-1.33-1.37-2.63-1.37h-5.04v7.99Z"/>
  <path class="cls-1" d="M52.7,50.4c-.53,0-.98-.19-1.37-.58-.38-.38-.58-.84-.58-1.37V1.94c0-.53.19-.98.58-1.37.38-.38.84-.58,1.37-.58h14.4c.53,0,.98.19,1.37.58.38.38.58.84.58,1.37v33.7h19.94c.53,0,.98.19,1.37.58.38.38.58.84.58,1.37v10.87c0,.53-.19.98-.58,1.37s-.84.58-1.37.58h-36.29Z"/>
</svg>