<?xml version="1.0" encoding="UTF-8"?>
<svg id="Layer_1" data-name="Layer 1" xmlns="http://www.w3.org/2000/svg" viewBox="0 0 158.19 180.84">
  <defs>
    <style>
      .cls-1 {
        stroke-linecap: round;
        stroke-linejoin: round;
      }

      .cls-1, .cls-2 {
        fill: none;
        stroke: #47494b;
        stroke-width: 8px;
      }

      .cls-2 {
        stroke-miterlimit: 10;
      }

      .cls-3 {
        fill: #7f74b5;
      }
    </style>
  </defs>
  <path class="cls-3" d="M19.84,132.45c-.63-.39-1.15-.91-1.55-1.57-.4-.66-.6-1.3-.6-1.95l.08-57.04c0-.64.2-1.05.6-1.21.4-.16.92-.05,1.55.34l24.05,14.79c4.75,2.92,8.89,6.21,12.41,9.87s6.26,7.58,8.24,11.78c1.97,4.2,2.95,8.58,2.95,13.14,0,4.51-1,7.61-2.98,9.32-1.98,1.71-4.73,2.19-8.25,1.43-3.52-.76-7.66-2.6-12.41-5.52l-10.22-6.28-.03,19.22c0,.64-.22,1.04-.65,1.18-.43.15-.96.02-1.59-.36l-11.59-7.13ZM33.46,107.27l10.05,6.18c2.46,1.51,4.42,2.08,5.89,1.69,1.46-.39,2.19-1.9,2.2-4.53,0-2.22-.62-4.48-1.88-6.78-1.26-2.3-3.32-4.32-6.18-6.08l-10.05-6.18-.02,15.71Z"/>
  <path class="cls-3" d="M94.4,156.51c-.71.41-1.29.54-1.73.38-.45-.15-.67-.56-.66-1.21l.66-57.82c0-.65.24-1.32.7-1.99.46-.67,1.04-1.22,1.75-1.63l12.75-7.37c.64-.37,1.21-.49,1.68-.35.48.14.71.53.71,1.18l-.53,46.61,29.17-16.85c.71-.41,1.3-.53,1.78-.37.48.17.71.58.71,1.23l-.1,8.9c0,.65-.25,1.33-.74,2.02-.49.69-1.09,1.25-1.79,1.66l-44.34,25.62Z"/>
  <g>
    <path class="cls-3" d="M55.4,64.13c-.08,0-.21-.02-.37-.05-.17-.04-.33-.11-.5-.21l-23.56-13.72c-.58-.36-1.02-.69-1.33-1.01s-.47-.75-.47-1.28v-1.92c0-.57.16-1.01.47-1.33s.75-.64,1.33-.96l23.56-13.77c.16-.07.33-.12.5-.16.16-.04.29-.05.37-.05.37,0,.68.1.93.29.25.2.37.45.37.77v7.21c0,.64-.21,1.12-.62,1.44-.41.32-.83.59-1.24.8l-12.15,6.72,12.15,6.78c.41.18.83.42,1.24.72.41.3.62.77.62,1.41v7.21c0,.36-.12.63-.37.83-.25.2-.56.29-.93.29Z"/>
    <path class="cls-3" d="M62.9,68.56c-.37,0-.69-.12-.96-.35-.27-.23-.4-.51-.4-.83,0-.14.04-.3.12-.48l20.89-43.34c.17-.32.44-.64.84-.96.39-.32.94-.48,1.64-.48h6.94c.37,0,.69.12.96.35.27.23.4.51.4.83,0,.14-.06.3-.19.48l-21.02,43.34c-.12.32-.37.64-.74.96s-.95.48-1.74.48h-6.76Z"/>
    <path class="cls-3" d="M99.48,64.19c-.37,0-.68-.11-.93-.32s-.37-.48-.37-.8v-7.21c0-.64.22-1.11.65-1.41.43-.3.84-.56,1.21-.77l12.21-6.78-12.21-6.72c-.37-.18-.78-.44-1.21-.77-.43-.34-.65-.81-.65-1.41v-7.21c0-.32.12-.59.37-.8.25-.21.56-.32.93-.32.12,0,.26.03.4.08.14.05.3.12.46.19l23.62,13.77c.58.32,1.02.64,1.33.96.31.32.46.75.46,1.28v1.97c0,.53-.15.96-.46,1.28-.31.32-.75.64-1.33.96l-23.62,13.77c-.17.07-.32.13-.46.19-.15.05-.28.08-.4.08Z"/>
  </g>
  <path class="cls-2" d="M5.34,47.38c-1.03,1.96-1.18,4.24-1.26,6.7-.18,16.8,0,52.9-.05,69.48.1,3.48-.16,7.11,1.67,9.94,1.27,1.92,4.22,3.75,6.62,5.2,12.34,7.4,42.71,25.46,56.6,33.74,2.75,1.6,5.63,3.47,8.5,4.21,3.67.67,5.69-.85,9.49-2.85,16.09-9.37,45.4-26.37,60.62-35.4,7.3-3.95,6.58-8.42,6.63-16.53,0-4.92,0-11.4,0-18.47-.09-16.65.19-33.98-.12-50.52.05-6.5-3.85-8.59-9.54-11.94-5.05-2.97-10.09-5.94-15.37-9.05-7.84-4.61-16.56-9.74-24.35-14.32-5.67-3.33-10.86-6.39-14.87-8.74-5.21-2.72-8.38-6.05-13.71-4.44C58.24,13.62,34.56,28.93,14.32,40.47c-4.84,2.9-7.64,4.55-8.93,6.84l-.04.08Z"/>
  <polyline class="cls-1" points="9.73 50.82 78.55 90.47 78.55 170.44 78.55 90.47 148.27 50.91"/>
</svg>