<?xml version="1.0" encoding="UTF-8"?>
<svg id="Layer_1" xmlns="http://www.w3.org/2000/svg" version="1.1" viewBox="0 0 158.2 180.8">
  <!-- Generator: Adobe Illustrator 29.3.1, SVG Export Plug-In . SVG Version: 2.1.0 Build 151)  -->
  <defs>
    <style>
      .st0 {
        fill: #f3f5f6;
      }

      .st1 {
        fill: #676193;
      }

      .st2 {
        fill: #9e95d8;
      }

      .st3 {
        fill: #7f74b5;
      }
    </style>
  </defs>
  <g>
    <path class="st2" d="M152.7,47.2c-1.5-3-4.6-4.7-8.5-7-5-3-10.1-5.9-15.4-9-7.8-4.6-16.6-9.7-24.4-14.3-5.7-3.3-10.9-6.4-14.9-8.7-5.2-2.7-8.4-6.1-13.7-4.4C58.1,13.7,33.5,27.7,14,39.7c0,0-7.3,4.9-9,6.9-.3.3-.4.6-.6,1l73.8,42.1,74.5-42.5Z"/>
    <path class="st1" d="M153.7,52.1c0-2-.3-3.6-1-4.9l-74.5,42.5.2,86.3c2.9.1,4.9-1.2,8.2-3,16.1-9.4,45.4-26.4,60.6-35.4,7.3-3.9,6.6-8.4,6.6-16.5v-18.5c0-16.6.2-34-.1-50.5Z"/>
    <path class="st3" d="M4.4,47.6c-.8,1.6-.6,3.7-.7,5.7-.2,16.8,0,52.9,0,69.5,0,3.5-.2,7.1,1.7,9.9,1.3,1.9,4.2,3.8,6.6,5.2,12.3,7.4,42.7,25.5,56.6,33.7,2.8,1.6,5.6,3.5,8.5,4.2.5,0,.9.1,1.3.2l-.2-86.3L4.4,47.6Z"/>
  </g>
  <path class="st0" d="M20.3,128.4c-.6-.4-1-.8-1.4-1.4s-.5-1.2-.5-1.8v-51.3c0-.6.3-.9.6-1.1.4-.1.8,0,1.4.3l21.6,13.3c4.3,2.6,8,5.6,11.2,8.9,3.2,3.3,5.6,6.8,7.4,10.6,1.8,3.8,2.7,7.7,2.7,11.8s-.9,6.8-2.7,8.4c-1.8,1.5-4.3,2-7.4,1.3-3.2-.7-6.9-2.3-11.2-5l-9.2-5.7v17.3c0,.6-.2.9-.6,1.1-.4.1-.9,0-1.4-.3l-10.4-6.4h0ZM32.6,105.7l9,5.6c2.2,1.4,4,1.9,5.3,1.5,1.3-.4,2-1.7,2-4.1,0-2-.6-4-1.7-6.1-1.1-2.1-3-3.9-5.6-5.5l-9-5.6v14.1s0,0,0,0Z"/>
  <path class="st0" d="M95.9,150.5c-.6.4-1.2.5-1.6.3-.4-.1-.6-.5-.6-1.1l.6-52c0-.6.2-1.2.6-1.8s.9-1.1,1.6-1.5l11.5-6.6c.6-.3,1.1-.4,1.5-.3.4.1.6.5.6,1.1l-.5,41.9,26.3-15.2c.6-.4,1.2-.5,1.6-.3.4.2.6.5.6,1.1v8c0,.6-.3,1.2-.8,1.8s-1,1.1-1.6,1.5l-39.9,23.1h0Z"/>
  <g>
    <path class="st0" d="M56.7,60.9c0,0-.2,0-.3,0-.2,0-.3,0-.5-.2l-21.2-12.3c-.5-.3-.9-.6-1.2-.9s-.4-.7-.4-1.2v-1.7c0-.5.1-.9.4-1.2s.7-.6,1.2-.9l21.2-12.4c.1,0,.3-.1.5-.1.1,0,.3,0,.3,0,.3,0,.6,0,.8.3.2.2.3.4.3.7v6.5c0,.6-.2,1-.6,1.3s-.7.5-1.1.7l-10.9,6,10.9,6.1c.4.2.7.4,1.1.6.4.3.6.7.6,1.3v6.5c0,.3-.1.6-.3.7-.2.2-.5.3-.8.3h0Z"/>
    <path class="st0" d="M63.4,64.9c-.3,0-.6-.1-.9-.3-.2-.2-.4-.5-.4-.7s0-.3.1-.4l18.8-39c.2-.3.4-.6.8-.9.4-.3.8-.4,1.5-.4h6.2c.3,0,.6.1.9.3s.4.5.4.7,0,.3-.2.4l-18.9,39c-.1.3-.3.6-.7.9s-.9.4-1.6.4h-6.1,0Z"/>
    <path class="st0" d="M96.3,60.9c-.3,0-.6,0-.8-.3s-.3-.4-.3-.7v-6.5c0-.6.2-1,.6-1.3s.8-.5,1.1-.7l11-6.1-11-6c-.3-.2-.7-.4-1.1-.7-.4-.3-.6-.7-.6-1.3v-6.5c0-.3.1-.5.3-.7s.5-.3.8-.3.2,0,.4,0,.3.1.4.2l21.3,12.4c.5.3.9.6,1.2.9.3.3.4.7.4,1.2v1.8c0,.5-.1.9-.4,1.2s-.7.6-1.2.9l-21.3,12.4c-.2,0-.3.1-.4.2-.1,0-.3,0-.4,0h0Z"/>
  </g>
</svg>