<svg width="460" height="92" viewBox="0 0 460 92" fill="none" xmlns="http://www.w3.org/2000/svg">
<rect x="88.5" y="2.5" width="87" height="87" stroke="white" stroke-width="5"/>
<rect x="2.5" y="2.5" width="87" height="87" stroke="white" stroke-width="5"/>
<rect x="348.5" y="2.5" width="87" height="87" stroke="white" stroke-width="5"/>
<rect x="262.5" y="2.5" width="87" height="87" stroke="white" stroke-width="5"/>
<rect x="175.5" y="2.5" width="87" height="87" stroke="white" stroke-width="5"/>
<path d="M45.9236 62.4176C43.6963 62.4176 41.7126 62.0348 39.9726 61.2692C38.2425 60.4936 36.8753 59.4297 35.871 58.0774C34.8767 56.7152 34.3646 55.1442 34.3348 53.3643H40.8376C40.8774 54.1101 41.121 54.7663 41.5684 55.3331C42.0258 55.8899 42.6324 56.3224 43.3881 56.6307C44.1437 56.9389 44.9939 57.093 45.9385 57.093C46.9229 57.093 47.7929 56.919 48.5486 56.571C49.3042 56.223 49.8959 55.7408 50.3234 55.1243C50.751 54.5078 50.9648 53.7969 50.9648 52.9915C50.9648 52.1761 50.7361 51.4553 50.2787 50.8288C49.8312 50.1925 49.1849 49.6953 48.3398 49.3374C47.5045 48.9794 46.5102 48.8004 45.3568 48.8004H42.5081V44.0575H45.3568C46.3312 44.0575 47.1913 43.8885 47.9371 43.5504C48.6927 43.2124 49.2794 42.745 49.697 42.1484C50.1146 41.5419 50.3234 40.8359 50.3234 40.0305C50.3234 39.2649 50.1395 38.5938 49.7716 38.017C49.4136 37.4304 48.9065 36.973 48.2503 36.6449C47.604 36.3168 46.8483 36.1527 45.9832 36.1527C45.1082 36.1527 44.3078 36.3118 43.5819 36.63C42.8561 36.9382 42.2744 37.3807 41.8369 37.9574C41.3994 38.5341 41.1657 39.2102 41.1359 39.9858H34.9463C34.9761 38.2259 35.4782 36.6747 36.4527 35.3324C37.4271 33.9901 38.7396 32.941 40.3902 32.1854C42.0507 31.4197 43.925 31.0369 46.0131 31.0369C48.121 31.0369 49.9655 31.4197 51.5464 32.1854C53.1274 32.951 54.3554 33.9851 55.2304 35.2876C56.1153 36.5803 56.5528 38.032 56.5429 39.6428C56.5528 41.353 56.0209 42.7798 54.947 43.9233C53.8831 45.0668 52.496 45.7926 50.7858 46.1009V46.3395C53.0329 46.6278 54.7432 47.4084 55.9165 48.6811C57.0997 49.9439 57.6863 51.5249 57.6764 53.424C57.6863 55.1641 57.1842 56.7102 56.17 58.0625C55.1658 59.4148 53.7787 60.4787 52.0088 61.2543C50.2389 62.0298 48.2105 62.4176 45.9236 62.4176Z" fill="white"/>
<path d="M384.809 44.2067V49.2479H370.879V44.2067H384.809ZM401.32 62.4176C399.212 62.4176 397.332 62.0298 395.682 61.2543C394.041 60.4787 392.739 59.4098 391.774 58.0476C390.81 56.6854 390.308 55.1243 390.268 53.3643H396.532C396.602 54.5476 397.099 55.5071 398.023 56.2429C398.948 56.9787 400.047 57.3466 401.32 57.3466C402.334 57.3466 403.229 57.1229 404.004 56.6754C404.79 56.218 405.401 55.5866 405.839 54.7812C406.286 53.9659 406.51 53.0312 406.51 51.9773C406.51 50.9034 406.281 49.9588 405.824 49.1435C405.376 48.3281 404.755 47.6918 403.96 47.2344C403.164 46.777 402.254 46.5433 401.23 46.5334C400.335 46.5334 399.465 46.7173 398.62 47.0852C397.785 47.4531 397.134 47.9553 396.666 48.5916L390.924 47.5625L392.371 31.4545H411.044V36.7344H397.695L396.905 44.3857H397.084C397.621 43.63 398.431 43.0036 399.515 42.5064C400.599 42.0092 401.812 41.7607 403.154 41.7607C404.994 41.7607 406.634 42.1932 408.076 43.0582C409.518 43.9233 410.656 45.1115 411.491 46.6229C412.327 48.1243 412.739 49.8544 412.729 51.8132C412.739 53.8714 412.262 55.701 411.298 57.3018C410.343 58.8928 409.006 60.1456 407.286 61.0604C405.575 61.9652 403.587 62.4176 401.32 62.4176Z" fill="white"/>
<path d="M310.765 31.4545V62H304.307V37.5845H304.128L297.133 41.9695V36.2422L304.695 31.4545H310.765Z" fill="white"/>
<path d="M204.766 62.4176C202.539 62.4176 200.555 62.0348 198.815 61.2692C197.085 60.4936 195.718 59.4297 194.714 58.0774C193.719 56.7152 193.207 55.1442 193.178 53.3643H199.68C199.72 54.1101 199.964 54.7663 200.411 55.3331C200.869 55.8899 201.475 56.3224 202.231 56.6307C202.987 56.9389 203.837 57.093 204.781 57.093C205.766 57.093 206.636 56.919 207.391 56.571C208.147 56.223 208.739 55.7408 209.166 55.1243C209.594 54.5078 209.808 53.7969 209.808 52.9915C209.808 52.1761 209.579 51.4553 209.121 50.8288C208.674 50.1925 208.028 49.6953 207.183 49.3374C206.347 48.9794 205.353 48.8004 204.2 48.8004H201.351V44.0575H204.2C205.174 44.0575 206.034 43.8885 206.78 43.5504C207.536 43.2124 208.122 42.745 208.54 42.1484C208.957 41.5419 209.166 40.8359 209.166 40.0305C209.166 39.2649 208.982 38.5938 208.614 38.017C208.256 37.4304 207.749 36.973 207.093 36.6449C206.447 36.3168 205.691 36.1527 204.826 36.1527C203.951 36.1527 203.151 36.3118 202.425 36.63C201.699 36.9382 201.117 37.3807 200.68 37.9574C200.242 38.5341 200.009 39.2102 199.979 39.9858H193.789C193.819 38.2259 194.321 36.6747 195.295 35.3324C196.27 33.9901 197.582 32.941 199.233 32.1854C200.893 31.4197 202.768 31.0369 204.856 31.0369C206.964 31.0369 208.808 31.4197 210.389 32.1854C211.97 32.951 213.198 33.9851 214.073 35.2876C214.958 36.5803 215.396 38.032 215.386 39.6428C215.396 41.353 214.864 42.7798 213.79 43.9233C212.726 45.0668 211.339 45.7926 209.629 46.1009V46.3395C211.876 46.6278 213.586 47.4084 214.759 48.6811C215.942 49.9439 216.529 51.5249 216.519 53.424C216.529 55.1641 216.027 56.7102 215.013 58.0625C214.009 59.4148 212.621 60.4787 210.852 61.2543C209.082 62.0298 207.053 62.4176 204.766 62.4176ZM220.699 56.6307V51.5447L233.451 31.4545H237.836V38.4943H235.241L227.202 51.2166V51.4553H245.323V56.6307H220.699ZM235.36 62V55.0795L235.48 52.8274V31.4545H241.535V62H235.36Z" fill="white"/>
<path d="M123.765 31.4545V62H117.307V37.5845H117.128L110.133 41.9695V36.2422L117.695 31.4545H123.765ZM131.025 62V57.3466L141.898 47.2791C142.822 46.3842 143.598 45.5788 144.224 44.8629C144.861 44.147 145.343 43.446 145.671 42.7599C145.999 42.0639 146.163 41.3132 146.163 40.5078C146.163 39.6129 145.959 38.8423 145.552 38.196C145.144 37.5398 144.587 37.0376 143.881 36.6896C143.175 36.3317 142.375 36.1527 141.48 36.1527C140.545 36.1527 139.73 36.3416 139.034 36.7195C138.338 37.0973 137.801 37.6392 137.423 38.3452C137.045 39.0511 136.856 39.8913 136.856 40.8658H130.726C130.726 38.8672 131.179 37.1321 132.084 35.6605C132.988 34.1889 134.256 33.0504 135.887 32.245C137.518 31.4396 139.397 31.0369 141.525 31.0369C143.712 31.0369 145.616 31.4247 147.237 32.2003C148.868 32.9659 150.135 34.0298 151.04 35.392C151.945 36.7543 152.398 38.3153 152.398 40.0753C152.398 41.2287 152.169 42.3672 151.711 43.4908C151.264 44.6143 150.464 45.8622 149.31 47.2344C148.157 48.5966 146.531 50.2322 144.433 52.1413L139.974 56.5114V56.7202H152.8V62H131.025Z" fill="white"/>
</svg>
