<svg width="1215" height="197" viewBox="0 0 1215 197" fill="none" xmlns="http://www.w3.org/2000/svg">
<circle cx="329.5" cy="94.5" r="61" stroke="#969eb0" stroke-width="15"/>
<path d="M117.439 91.4898C115.501 93.4563 115.523 96.6221 117.49 98.5607L149.536 130.152C151.503 132.091 154.668 132.068 156.607 130.102C158.546 128.135 158.523 124.97 156.556 123.031L128.071 94.9495L156.152 66.4639C158.091 64.4974 158.068 61.3317 156.102 59.393C154.135 57.4544 150.97 57.477 149.031 59.4435L117.439 91.4898ZM260.964 89.0001L120.964 90.0001L121.036 99.9999L261.036 98.9999L260.964 89.0001Z" fill="#969eb0"/>
<path d="M541.536 78.5355C543.488 76.5829 543.488 73.4171 541.536 71.4645L509.716 39.6447C507.763 37.692 504.597 37.692 502.645 39.6447C500.692 41.5973 500.692 44.7631 502.645 46.7157L530.929 75L502.645 103.284C500.692 105.237 500.692 108.403 502.645 110.355C504.597 112.308 507.763 112.308 509.716 110.355L541.536 78.5355ZM538 70L388 70L388 80L538 80L538 70Z" fill="#969eb0"/>
<path d="M1095.56 98.5102C1097.5 96.5437 1097.48 93.3779 1095.51 91.4393L1063.46 59.8476C1061.5 57.909 1058.33 57.9316 1056.39 59.8981C1054.45 61.8646 1054.48 65.0304 1056.44 66.969L1084.93 95.0505L1056.85 123.536C1054.91 125.503 1054.93 128.668 1056.9 130.607C1058.86 132.546 1062.03 132.523 1063.97 130.556L1095.56 98.5102ZM1091.96 90.0001L951.964 91.0001L952.036 101L1092.04 99.9999L1091.96 90.0001Z" fill="#969eb0"/>
<circle cx="883.5" cy="94.5" r="61" stroke="#969eb0" stroke-width="15"/>
<circle cx="606.5" cy="94.5" r="61" stroke="#969eb0" stroke-width="15"/>
<path d="M394.464 108.464C392.512 110.417 392.512 113.583 394.464 115.536L426.284 147.355C428.237 149.308 431.403 149.308 433.355 147.355C435.308 145.403 435.308 142.237 433.355 140.284L405.071 112L433.355 83.7157C435.308 81.7631 435.308 78.5973 433.355 76.6447C431.403 74.692 428.237 74.692 426.284 76.6447L394.464 108.464ZM547 107L398 107V117L547 117V107Z" fill="#969eb0"/>
<path d="M818.536 78.5355C820.488 76.5829 820.488 73.4171 818.536 71.4645L786.716 39.6447C784.763 37.692 781.597 37.692 779.645 39.6447C777.692 41.5973 777.692 44.7631 779.645 46.7157L807.929 75L779.645 103.284C777.692 105.237 777.692 108.403 779.645 110.355C781.597 112.308 784.763 112.308 786.716 110.355L818.536 78.5355ZM815 70L665 70L665 80L815 80L815 70Z" fill="#969eb0"/>
<path d="M671.464 108.464C669.512 110.417 669.512 113.583 671.464 115.536L703.284 147.355C705.237 149.308 708.403 149.308 710.355 147.355C712.308 145.403 712.308 142.237 710.355 140.284L682.071 112L710.355 83.7157C712.308 81.7631 712.308 78.5973 710.355 76.6447C708.403 74.692 705.237 74.692 703.284 76.6447L671.464 108.464ZM824 107L675 107V117L824 117V107Z" fill="#969eb0"/>
<path d="M160.42 197C160.156 197 159.94 196.916 159.772 196.748C159.604 196.58 159.52 196.364 159.52 196.1V172.7C159.52 172.436 159.604 172.22 159.772 172.052C159.94 171.884 160.156 171.8 160.42 171.8H170.5C172.492 171.8 174.22 172.112 175.684 172.736C177.172 173.336 178.324 174.248 179.14 175.472C179.98 176.696 180.4 178.244 180.4 180.116C180.4 181.964 179.98 183.488 179.14 184.688C178.324 185.888 177.172 186.776 175.684 187.352C174.22 187.928 172.492 188.216 170.5 188.216H166.216V196.1C166.216 196.364 166.12 196.58 165.928 196.748C165.76 196.916 165.544 197 165.28 197H160.42ZM166.108 183.248H170.32C171.352 183.248 172.168 182.984 172.768 182.456C173.392 181.928 173.704 181.124 173.704 180.044C173.704 179.132 173.44 178.364 172.912 177.74C172.384 177.116 171.52 176.804 170.32 176.804H166.108V183.248ZM184.748 197C184.484 197 184.268 196.916 184.1 196.748C183.932 196.58 183.848 196.364 183.848 196.1V172.7C183.848 172.436 183.932 172.22 184.1 172.052C184.268 171.884 184.484 171.8 184.748 171.8H194.54C197.636 171.8 200.072 172.52 201.848 173.96C203.648 175.376 204.548 177.392 204.548 180.008C204.548 181.712 204.128 183.152 203.288 184.328C202.472 185.504 201.392 186.392 200.048 186.992L205.016 195.848C205.088 195.992 205.124 196.124 205.124 196.244C205.124 196.436 205.04 196.616 204.872 196.784C204.728 196.928 204.548 197 204.332 197H199.58C199.124 197 198.788 196.892 198.572 196.676C198.356 196.436 198.2 196.22 198.104 196.028L194 188.108H190.292V196.1C190.292 196.364 190.208 196.58 190.04 196.748C189.872 196.916 189.656 197 189.392 197H184.748ZM190.292 183.032H194.468C195.596 183.032 196.436 182.756 196.988 182.204C197.564 181.652 197.852 180.896 197.852 179.936C197.852 179 197.576 178.244 197.024 177.668C196.496 177.092 195.644 176.804 194.468 176.804H190.292V183.032ZM209.639 197C209.375 197 209.159 196.916 208.991 196.748C208.823 196.58 208.739 196.364 208.739 196.1V172.7C208.739 172.436 208.823 172.22 208.991 172.052C209.159 171.884 209.375 171.8 209.639 171.8H226.451C226.715 171.8 226.931 171.884 227.099 172.052C227.267 172.22 227.351 172.436 227.351 172.7V176.084C227.351 176.348 227.267 176.564 227.099 176.732C226.931 176.9 226.715 176.984 226.451 176.984H214.967V181.844H225.659C225.923 181.844 226.139 181.94 226.307 182.132C226.475 182.3 226.559 182.516 226.559 182.78V185.912C226.559 186.152 226.475 186.368 226.307 186.56C226.139 186.728 225.923 186.812 225.659 186.812H214.967V191.816H226.739C227.003 191.816 227.219 191.9 227.387 192.068C227.555 192.236 227.639 192.452 227.639 192.716V196.1C227.639 196.364 227.555 196.58 227.387 196.748C227.219 196.916 227.003 197 226.739 197H209.639ZM238.79 197C238.382 197 238.058 196.892 237.818 196.676C237.578 196.46 237.41 196.208 237.314 195.92L229.97 172.88C229.922 172.76 229.898 172.652 229.898 172.556C229.898 172.364 229.97 172.196 230.114 172.052C230.282 171.884 230.474 171.8 230.69 171.8H235.154C235.538 171.8 235.838 171.908 236.054 172.124C236.27 172.34 236.402 172.544 236.45 172.736L241.526 189.368L246.638 172.736C246.71 172.544 246.842 172.34 247.034 172.124C247.25 171.908 247.55 171.8 247.934 171.8H252.398C252.614 171.8 252.794 171.884 252.938 172.052C253.106 172.196 253.19 172.364 253.19 172.556C253.19 172.652 253.166 172.76 253.118 172.88L245.774 195.92C245.678 196.208 245.51 196.46 245.27 196.676C245.054 196.892 244.73 197 244.298 197H238.79Z" fill="#969eb0"/>
<path d="M424.42 197C424.156 197 423.94 196.916 423.772 196.748C423.604 196.58 423.52 196.364 423.52 196.1V172.7C423.52 172.436 423.604 172.22 423.772 172.052C423.94 171.884 424.156 171.8 424.42 171.8H434.5C436.492 171.8 438.22 172.112 439.684 172.736C441.172 173.336 442.324 174.248 443.14 175.472C443.98 176.696 444.4 178.244 444.4 180.116C444.4 181.964 443.98 183.488 443.14 184.688C442.324 185.888 441.172 186.776 439.684 187.352C438.22 187.928 436.492 188.216 434.5 188.216H430.216V196.1C430.216 196.364 430.12 196.58 429.928 196.748C429.76 196.916 429.544 197 429.28 197H424.42ZM430.108 183.248H434.32C435.352 183.248 436.168 182.984 436.768 182.456C437.392 181.928 437.704 181.124 437.704 180.044C437.704 179.132 437.44 178.364 436.912 177.74C436.384 177.116 435.52 176.804 434.32 176.804H430.108V183.248ZM448.748 197C448.484 197 448.268 196.916 448.1 196.748C447.932 196.58 447.848 196.364 447.848 196.1V172.7C447.848 172.436 447.932 172.22 448.1 172.052C448.268 171.884 448.484 171.8 448.748 171.8H458.54C461.636 171.8 464.072 172.52 465.848 173.96C467.648 175.376 468.548 177.392 468.548 180.008C468.548 181.712 468.128 183.152 467.288 184.328C466.472 185.504 465.392 186.392 464.048 186.992L469.016 195.848C469.088 195.992 469.124 196.124 469.124 196.244C469.124 196.436 469.04 196.616 468.872 196.784C468.728 196.928 468.548 197 468.332 197H463.58C463.124 197 462.788 196.892 462.572 196.676C462.356 196.436 462.2 196.22 462.104 196.028L458 188.108H454.292V196.1C454.292 196.364 454.208 196.58 454.04 196.748C453.872 196.916 453.656 197 453.392 197H448.748ZM454.292 183.032H458.468C459.596 183.032 460.436 182.756 460.988 182.204C461.564 181.652 461.852 180.896 461.852 179.936C461.852 179 461.576 178.244 461.024 177.668C460.496 177.092 459.644 176.804 458.468 176.804H454.292V183.032ZM473.639 197C473.375 197 473.159 196.916 472.991 196.748C472.823 196.58 472.739 196.364 472.739 196.1V172.7C472.739 172.436 472.823 172.22 472.991 172.052C473.159 171.884 473.375 171.8 473.639 171.8H490.451C490.715 171.8 490.931 171.884 491.099 172.052C491.267 172.22 491.351 172.436 491.351 172.7V176.084C491.351 176.348 491.267 176.564 491.099 176.732C490.931 176.9 490.715 176.984 490.451 176.984H478.967V181.844H489.659C489.923 181.844 490.139 181.94 490.307 182.132C490.475 182.3 490.559 182.516 490.559 182.78V185.912C490.559 186.152 490.475 186.368 490.307 186.56C490.139 186.728 489.923 186.812 489.659 186.812H478.967V191.816H490.739C491.003 191.816 491.219 191.9 491.387 192.068C491.555 192.236 491.639 192.452 491.639 192.716V196.1C491.639 196.364 491.555 196.58 491.387 196.748C491.219 196.916 491.003 197 490.739 197H473.639ZM502.79 197C502.382 197 502.058 196.892 501.818 196.676C501.578 196.46 501.41 196.208 501.314 195.92L493.97 172.88C493.922 172.76 493.898 172.652 493.898 172.556C493.898 172.364 493.97 172.196 494.114 172.052C494.282 171.884 494.474 171.8 494.69 171.8H499.154C499.538 171.8 499.838 171.908 500.054 172.124C500.27 172.34 500.402 172.544 500.45 172.736L505.526 189.368L510.638 172.736C510.71 172.544 510.842 172.34 511.034 172.124C511.25 171.908 511.55 171.8 511.934 171.8H516.398C516.614 171.8 516.794 171.884 516.938 172.052C517.106 172.196 517.19 172.364 517.19 172.556C517.19 172.652 517.166 172.76 517.118 172.88L509.774 195.92C509.678 196.208 509.51 196.46 509.27 196.676C509.054 196.892 508.73 197 508.298 197H502.79Z" fill="#969eb0"/>
<path d="M701.42 197C701.156 197 700.94 196.916 700.772 196.748C700.604 196.58 700.52 196.364 700.52 196.1V172.7C700.52 172.436 700.604 172.22 700.772 172.052C700.94 171.884 701.156 171.8 701.42 171.8H711.5C713.492 171.8 715.22 172.112 716.684 172.736C718.172 173.336 719.324 174.248 720.14 175.472C720.98 176.696 721.4 178.244 721.4 180.116C721.4 181.964 720.98 183.488 720.14 184.688C719.324 185.888 718.172 186.776 716.684 187.352C715.22 187.928 713.492 188.216 711.5 188.216H707.216V196.1C707.216 196.364 707.12 196.58 706.928 196.748C706.76 196.916 706.544 197 706.28 197H701.42ZM707.108 183.248H711.32C712.352 183.248 713.168 182.984 713.768 182.456C714.392 181.928 714.704 181.124 714.704 180.044C714.704 179.132 714.44 178.364 713.912 177.74C713.384 177.116 712.52 176.804 711.32 176.804H707.108V183.248ZM725.748 197C725.484 197 725.268 196.916 725.1 196.748C724.932 196.58 724.848 196.364 724.848 196.1V172.7C724.848 172.436 724.932 172.22 725.1 172.052C725.268 171.884 725.484 171.8 725.748 171.8H735.54C738.636 171.8 741.072 172.52 742.848 173.96C744.648 175.376 745.548 177.392 745.548 180.008C745.548 181.712 745.128 183.152 744.288 184.328C743.472 185.504 742.392 186.392 741.048 186.992L746.016 195.848C746.088 195.992 746.124 196.124 746.124 196.244C746.124 196.436 746.04 196.616 745.872 196.784C745.728 196.928 745.548 197 745.332 197H740.58C740.124 197 739.788 196.892 739.572 196.676C739.356 196.436 739.2 196.22 739.104 196.028L735 188.108H731.292V196.1C731.292 196.364 731.208 196.58 731.04 196.748C730.872 196.916 730.656 197 730.392 197H725.748ZM731.292 183.032H735.468C736.596 183.032 737.436 182.756 737.988 182.204C738.564 181.652 738.852 180.896 738.852 179.936C738.852 179 738.576 178.244 738.024 177.668C737.496 177.092 736.644 176.804 735.468 176.804H731.292V183.032ZM750.639 197C750.375 197 750.159 196.916 749.991 196.748C749.823 196.58 749.739 196.364 749.739 196.1V172.7C749.739 172.436 749.823 172.22 749.991 172.052C750.159 171.884 750.375 171.8 750.639 171.8H767.451C767.715 171.8 767.931 171.884 768.099 172.052C768.267 172.22 768.351 172.436 768.351 172.7V176.084C768.351 176.348 768.267 176.564 768.099 176.732C767.931 176.9 767.715 176.984 767.451 176.984H755.967V181.844H766.659C766.923 181.844 767.139 181.94 767.307 182.132C767.475 182.3 767.559 182.516 767.559 182.78V185.912C767.559 186.152 767.475 186.368 767.307 186.56C767.139 186.728 766.923 186.812 766.659 186.812H755.967V191.816H767.739C768.003 191.816 768.219 191.9 768.387 192.068C768.555 192.236 768.639 192.452 768.639 192.716V196.1C768.639 196.364 768.555 196.58 768.387 196.748C768.219 196.916 768.003 197 767.739 197H750.639ZM779.79 197C779.382 197 779.058 196.892 778.818 196.676C778.578 196.46 778.41 196.208 778.314 195.92L770.97 172.88C770.922 172.76 770.898 172.652 770.898 172.556C770.898 172.364 770.97 172.196 771.114 172.052C771.282 171.884 771.474 171.8 771.69 171.8H776.154C776.538 171.8 776.838 171.908 777.054 172.124C777.27 172.34 777.402 172.544 777.45 172.736L782.526 189.368L787.638 172.736C787.71 172.544 787.842 172.34 788.034 172.124C788.25 171.908 788.55 171.8 788.934 171.8H793.398C793.614 171.8 793.794 171.884 793.938 172.052C794.106 172.196 794.19 172.364 794.19 172.556C794.19 172.652 794.166 172.76 794.118 172.88L786.774 195.92C786.678 196.208 786.51 196.46 786.27 196.676C786.054 196.892 785.73 197 785.298 197H779.79Z" fill="#969eb0"/>
<path d="M426.42 26C426.156 26 425.94 25.916 425.772 25.748C425.604 25.58 425.52 25.364 425.52 25.1V1.7C425.52 1.436 425.604 1.22 425.772 1.052C425.94 0.883999 426.156 0.799998 426.42 0.799998H430.236C430.644 0.799998 430.932 0.895998 431.1 1.088C431.292 1.256 431.412 1.388 431.46 1.484L440.244 15.344V1.7C440.244 1.436 440.328 1.22 440.496 1.052C440.664 0.883999 440.88 0.799998 441.144 0.799998H445.464C445.728 0.799998 445.944 0.883999 446.112 1.052C446.28 1.22 446.364 1.436 446.364 1.7V25.1C446.364 25.34 446.28 25.556 446.112 25.748C445.944 25.916 445.728 26 445.464 26H441.612C441.228 26 440.94 25.904 440.748 25.712C440.58 25.52 440.472 25.388 440.424 25.316L431.64 11.996V25.1C431.64 25.364 431.556 25.58 431.388 25.748C431.22 25.916 431.004 26 430.74 26H426.42ZM452.295 26C452.031 26 451.815 25.916 451.647 25.748C451.479 25.58 451.395 25.364 451.395 25.1V1.7C451.395 1.436 451.479 1.22 451.647 1.052C451.815 0.883999 452.031 0.799998 452.295 0.799998H469.107C469.371 0.799998 469.587 0.883999 469.755 1.052C469.923 1.22 470.007 1.436 470.007 1.7V5.084C470.007 5.348 469.923 5.564 469.755 5.732C469.587 5.9 469.371 5.984 469.107 5.984H457.623V10.844H468.315C468.579 10.844 468.795 10.94 468.963 11.132C469.131 11.3 469.215 11.516 469.215 11.78V14.912C469.215 15.152 469.131 15.368 468.963 15.56C468.795 15.728 468.579 15.812 468.315 15.812H457.623V20.816H469.395C469.659 20.816 469.875 20.9 470.043 21.068C470.211 21.236 470.295 21.452 470.295 21.716V25.1C470.295 25.364 470.211 25.58 470.043 25.748C469.875 25.916 469.659 26 469.395 26H452.295ZM473.055 26C472.839 26 472.647 25.928 472.479 25.784C472.335 25.616 472.263 25.436 472.263 25.244C472.263 25.172 472.275 25.1 472.299 25.028C472.323 24.956 472.359 24.884 472.407 24.812L480.255 13.148L472.983 1.988C472.911 1.844 472.875 1.7 472.875 1.556C472.875 1.364 472.947 1.196 473.091 1.052C473.235 0.883999 473.415 0.799998 473.631 0.799998H478.851C479.211 0.799998 479.487 0.895998 479.679 1.088C479.871 1.256 480.003 1.412 480.075 1.556L484.395 8.108L488.751 1.556C488.847 1.412 488.991 1.256 489.183 1.088C489.375 0.895998 489.651 0.799998 490.011 0.799998H494.943C495.159 0.799998 495.339 0.883999 495.483 1.052C495.651 1.196 495.735 1.364 495.735 1.556C495.735 1.724 495.687 1.868 495.591 1.988L488.283 13.112L496.203 24.812C496.251 24.884 496.275 24.956 496.275 25.028C496.299 25.1 496.311 25.172 496.311 25.244C496.311 25.436 496.239 25.616 496.095 25.784C495.951 25.928 495.771 26 495.555 26H490.191C489.831 26 489.543 25.916 489.327 25.748C489.135 25.556 489.003 25.4 488.931 25.28L484.143 18.368L479.463 25.28C479.391 25.4 479.259 25.556 479.067 25.748C478.875 25.916 478.599 26 478.239 26H473.055ZM505.687 26C505.423 26 505.207 25.916 505.039 25.748C504.871 25.58 504.787 25.364 504.787 25.1V6.452H498.379C498.115 6.452 497.899 6.368 497.731 6.2C497.563 6.008 497.479 5.792 497.479 5.552V1.7C497.479 1.436 497.563 1.22 497.731 1.052C497.899 0.883999 498.115 0.799998 498.379 0.799998H517.747C518.011 0.799998 518.227 0.883999 518.395 1.052C518.563 1.22 518.647 1.436 518.647 1.7V5.552C518.647 5.792 518.563 6.008 518.395 6.2C518.227 6.368 518.011 6.452 517.747 6.452H511.339V25.1C511.339 25.364 511.255 25.58 511.087 25.748C510.919 25.916 510.703 26 510.439 26H505.687Z" fill="#969eb0"/>
<path d="M964.42 26C964.156 26 963.94 25.916 963.772 25.748C963.604 25.58 963.52 25.364 963.52 25.1V1.7C963.52 1.436 963.604 1.22 963.772 1.052C963.94 0.883999 964.156 0.799998 964.42 0.799998H968.236C968.644 0.799998 968.932 0.895998 969.1 1.088C969.292 1.256 969.412 1.388 969.46 1.484L978.244 15.344V1.7C978.244 1.436 978.328 1.22 978.496 1.052C978.664 0.883999 978.88 0.799998 979.144 0.799998H983.464C983.728 0.799998 983.944 0.883999 984.112 1.052C984.28 1.22 984.364 1.436 984.364 1.7V25.1C984.364 25.34 984.28 25.556 984.112 25.748C983.944 25.916 983.728 26 983.464 26H979.612C979.228 26 978.94 25.904 978.748 25.712C978.58 25.52 978.472 25.388 978.424 25.316L969.64 11.996V25.1C969.64 25.364 969.556 25.58 969.388 25.748C969.22 25.916 969.004 26 968.74 26H964.42ZM990.295 26C990.031 26 989.815 25.916 989.647 25.748C989.479 25.58 989.395 25.364 989.395 25.1V1.7C989.395 1.436 989.479 1.22 989.647 1.052C989.815 0.883999 990.031 0.799998 990.295 0.799998H1007.11C1007.37 0.799998 1007.59 0.883999 1007.76 1.052C1007.92 1.22 1008.01 1.436 1008.01 1.7V5.084C1008.01 5.348 1007.92 5.564 1007.76 5.732C1007.59 5.9 1007.37 5.984 1007.11 5.984H995.623V10.844H1006.32C1006.58 10.844 1006.8 10.94 1006.96 11.132C1007.13 11.3 1007.21 11.516 1007.21 11.78V14.912C1007.21 15.152 1007.13 15.368 1006.96 15.56C1006.8 15.728 1006.58 15.812 1006.32 15.812H995.623V20.816H1007.4C1007.66 20.816 1007.88 20.9 1008.04 21.068C1008.21 21.236 1008.3 21.452 1008.3 21.716V25.1C1008.3 25.364 1008.21 25.58 1008.04 25.748C1007.88 25.916 1007.66 26 1007.4 26H990.295ZM1011.06 26C1010.84 26 1010.65 25.928 1010.48 25.784C1010.34 25.616 1010.26 25.436 1010.26 25.244C1010.26 25.172 1010.28 25.1 1010.3 25.028C1010.32 24.956 1010.36 24.884 1010.41 24.812L1018.26 13.148L1010.98 1.988C1010.91 1.844 1010.88 1.7 1010.88 1.556C1010.88 1.364 1010.95 1.196 1011.09 1.052C1011.24 0.883999 1011.42 0.799998 1011.63 0.799998H1016.85C1017.21 0.799998 1017.49 0.895998 1017.68 1.088C1017.87 1.256 1018 1.412 1018.08 1.556L1022.4 8.108L1026.75 1.556C1026.85 1.412 1026.99 1.256 1027.18 1.088C1027.38 0.895998 1027.65 0.799998 1028.01 0.799998H1032.94C1033.16 0.799998 1033.34 0.883999 1033.48 1.052C1033.65 1.196 1033.74 1.364 1033.74 1.556C1033.74 1.724 1033.69 1.868 1033.59 1.988L1026.28 13.112L1034.2 24.812C1034.25 24.884 1034.28 24.956 1034.28 25.028C1034.3 25.1 1034.31 25.172 1034.31 25.244C1034.31 25.436 1034.24 25.616 1034.1 25.784C1033.95 25.928 1033.77 26 1033.56 26H1028.19C1027.83 26 1027.54 25.916 1027.33 25.748C1027.14 25.556 1027 25.4 1026.93 25.28L1022.14 18.368L1017.46 25.28C1017.39 25.4 1017.26 25.556 1017.07 25.748C1016.88 25.916 1016.6 26 1016.24 26H1011.06ZM1043.69 26C1043.42 26 1043.21 25.916 1043.04 25.748C1042.87 25.58 1042.79 25.364 1042.79 25.1V6.452H1036.38C1036.11 6.452 1035.9 6.368 1035.73 6.2C1035.56 6.008 1035.48 5.792 1035.48 5.552V1.7C1035.48 1.436 1035.56 1.22 1035.73 1.052C1035.9 0.883999 1036.11 0.799998 1036.38 0.799998H1055.75C1056.01 0.799998 1056.23 0.883999 1056.39 1.052C1056.56 1.22 1056.65 1.436 1056.65 1.7V5.552C1056.65 5.792 1056.56 6.008 1056.39 6.2C1056.23 6.368 1056.01 6.452 1055.75 6.452H1049.34V25.1C1049.34 25.364 1049.25 25.58 1049.09 25.748C1048.92 25.916 1048.7 26 1048.44 26H1043.69Z" fill="#969eb0"/>
<path d="M702.42 26C702.156 26 701.94 25.916 701.772 25.748C701.604 25.58 701.52 25.364 701.52 25.1V1.7C701.52 1.436 701.604 1.22 701.772 1.052C701.94 0.883999 702.156 0.799998 702.42 0.799998H706.236C706.644 0.799998 706.932 0.895998 707.1 1.088C707.292 1.256 707.412 1.388 707.46 1.484L716.244 15.344V1.7C716.244 1.436 716.328 1.22 716.496 1.052C716.664 0.883999 716.88 0.799998 717.144 0.799998H721.464C721.728 0.799998 721.944 0.883999 722.112 1.052C722.28 1.22 722.364 1.436 722.364 1.7V25.1C722.364 25.34 722.28 25.556 722.112 25.748C721.944 25.916 721.728 26 721.464 26H717.612C717.228 26 716.94 25.904 716.748 25.712C716.58 25.52 716.472 25.388 716.424 25.316L707.64 11.996V25.1C707.64 25.364 707.556 25.58 707.388 25.748C707.22 25.916 707.004 26 706.74 26H702.42ZM728.295 26C728.031 26 727.815 25.916 727.647 25.748C727.479 25.58 727.395 25.364 727.395 25.1V1.7C727.395 1.436 727.479 1.22 727.647 1.052C727.815 0.883999 728.031 0.799998 728.295 0.799998H745.107C745.371 0.799998 745.587 0.883999 745.755 1.052C745.923 1.22 746.007 1.436 746.007 1.7V5.084C746.007 5.348 745.923 5.564 745.755 5.732C745.587 5.9 745.371 5.984 745.107 5.984H733.623V10.844H744.315C744.579 10.844 744.795 10.94 744.963 11.132C745.131 11.3 745.215 11.516 745.215 11.78V14.912C745.215 15.152 745.131 15.368 744.963 15.56C744.795 15.728 744.579 15.812 744.315 15.812H733.623V20.816H745.395C745.659 20.816 745.875 20.9 746.043 21.068C746.211 21.236 746.295 21.452 746.295 21.716V25.1C746.295 25.364 746.211 25.58 746.043 25.748C745.875 25.916 745.659 26 745.395 26H728.295ZM749.055 26C748.839 26 748.647 25.928 748.479 25.784C748.335 25.616 748.263 25.436 748.263 25.244C748.263 25.172 748.275 25.1 748.299 25.028C748.323 24.956 748.359 24.884 748.407 24.812L756.255 13.148L748.983 1.988C748.911 1.844 748.875 1.7 748.875 1.556C748.875 1.364 748.947 1.196 749.091 1.052C749.235 0.883999 749.415 0.799998 749.631 0.799998H754.851C755.211 0.799998 755.487 0.895998 755.679 1.088C755.871 1.256 756.003 1.412 756.075 1.556L760.395 8.108L764.751 1.556C764.847 1.412 764.991 1.256 765.183 1.088C765.375 0.895998 765.651 0.799998 766.011 0.799998H770.943C771.159 0.799998 771.339 0.883999 771.483 1.052C771.651 1.196 771.735 1.364 771.735 1.556C771.735 1.724 771.687 1.868 771.591 1.988L764.283 13.112L772.203 24.812C772.251 24.884 772.275 24.956 772.275 25.028C772.299 25.1 772.311 25.172 772.311 25.244C772.311 25.436 772.239 25.616 772.095 25.784C771.951 25.928 771.771 26 771.555 26H766.191C765.831 26 765.543 25.916 765.327 25.748C765.135 25.556 765.003 25.4 764.931 25.28L760.143 18.368L755.463 25.28C755.391 25.4 755.259 25.556 755.067 25.748C754.875 25.916 754.599 26 754.239 26H749.055ZM781.687 26C781.423 26 781.207 25.916 781.039 25.748C780.871 25.58 780.787 25.364 780.787 25.1V6.452H774.379C774.115 6.452 773.899 6.368 773.731 6.2C773.563 6.008 773.479 5.792 773.479 5.552V1.7C773.479 1.436 773.563 1.22 773.731 1.052C773.899 0.883999 774.115 0.799998 774.379 0.799998H793.747C794.011 0.799998 794.227 0.883999 794.395 1.052C794.563 1.22 794.647 1.436 794.647 1.7V5.552C794.647 5.792 794.563 6.008 794.395 6.2C794.227 6.368 794.011 6.452 793.747 6.452H787.339V25.1C787.339 25.364 787.255 25.58 787.087 25.748C786.919 25.916 786.703 26 786.439 26H781.687Z" fill="#969eb0"/>
<path d="M1123.42 107C1123.16 107 1122.94 106.916 1122.77 106.748C1122.6 106.58 1122.52 106.364 1122.52 106.1V82.7C1122.52 82.436 1122.6 82.22 1122.77 82.052C1122.94 81.884 1123.16 81.8 1123.42 81.8H1127.24C1127.64 81.8 1127.93 81.896 1128.1 82.088C1128.29 82.256 1128.41 82.388 1128.46 82.484L1137.24 96.344V82.7C1137.24 82.436 1137.33 82.22 1137.5 82.052C1137.66 81.884 1137.88 81.8 1138.14 81.8H1142.46C1142.73 81.8 1142.94 81.884 1143.11 82.052C1143.28 82.22 1143.36 82.436 1143.36 82.7V106.1C1143.36 106.34 1143.28 106.556 1143.11 106.748C1142.94 106.916 1142.73 107 1142.46 107H1138.61C1138.23 107 1137.94 106.904 1137.75 106.712C1137.58 106.52 1137.47 106.388 1137.42 106.316L1128.64 92.996V106.1C1128.64 106.364 1128.56 106.58 1128.39 106.748C1128.22 106.916 1128 107 1127.74 107H1123.42ZM1158.94 107.36C1156.78 107.36 1154.89 107.012 1153.26 106.316C1151.65 105.596 1150.4 104.504 1149.51 103.04C1148.62 101.552 1148.18 99.668 1148.18 97.388V82.7C1148.18 82.436 1148.26 82.22 1148.43 82.052C1148.6 81.884 1148.82 81.8 1149.08 81.8H1153.72C1153.99 81.8 1154.2 81.884 1154.37 82.052C1154.54 82.22 1154.62 82.436 1154.62 82.7V97.352C1154.62 98.912 1155 100.088 1155.74 100.88C1156.51 101.648 1157.58 102.032 1158.94 102.032C1160.29 102.032 1161.33 101.648 1162.08 100.88C1162.84 100.088 1163.23 98.912 1163.23 97.352V82.7C1163.23 82.436 1163.31 82.22 1163.48 82.052C1163.67 81.884 1163.89 81.8 1164.13 81.8H1168.81C1169.05 81.8 1169.25 81.884 1169.42 82.052C1169.61 82.22 1169.71 82.436 1169.71 82.7V97.388C1169.71 99.668 1169.26 101.552 1168.38 103.04C1167.49 104.504 1166.24 105.596 1164.63 106.316C1163.02 107.012 1161.13 107.36 1158.94 107.36ZM1175.38 107C1175.12 107 1174.9 106.916 1174.73 106.748C1174.56 106.58 1174.48 106.364 1174.48 106.1V82.7C1174.48 82.436 1174.56 82.22 1174.73 82.052C1174.9 81.884 1175.12 81.8 1175.38 81.8H1180.13C1180.37 81.8 1180.58 81.884 1180.74 82.052C1180.94 82.22 1181.03 82.436 1181.03 82.7V101.564H1191.9C1192.17 101.564 1192.38 101.66 1192.55 101.852C1192.74 102.02 1192.84 102.236 1192.84 102.5V106.1C1192.84 106.364 1192.74 106.58 1192.55 106.748C1192.38 106.916 1192.17 107 1191.9 107H1175.38ZM1196.86 107C1196.6 107 1196.38 106.916 1196.21 106.748C1196.05 106.58 1195.96 106.364 1195.96 106.1V82.7C1195.96 82.436 1196.05 82.22 1196.21 82.052C1196.38 81.884 1196.6 81.8 1196.86 81.8H1201.61C1201.85 81.8 1202.06 81.884 1202.23 82.052C1202.42 82.22 1202.51 82.436 1202.51 82.7V101.564H1213.39C1213.65 101.564 1213.87 101.66 1214.03 101.852C1214.23 102.02 1214.32 102.236 1214.32 102.5V106.1C1214.32 106.364 1214.23 106.58 1214.03 106.748C1213.87 106.916 1213.65 107 1213.39 107H1196.86Z" fill="#969eb0"/>
<path d="M1.42 107C1.156 107 0.94 106.916 0.772 106.748C0.604 106.58 0.52 106.364 0.52 106.1V82.7C0.52 82.436 0.604 82.22 0.772 82.052C0.94 81.884 1.156 81.8 1.42 81.8H5.236C5.644 81.8 5.932 81.896 6.1 82.088C6.292 82.256 6.412 82.388 6.46 82.484L15.244 96.344V82.7C15.244 82.436 15.328 82.22 15.496 82.052C15.664 81.884 15.88 81.8 16.144 81.8H20.464C20.728 81.8 20.944 81.884 21.112 82.052C21.28 82.22 21.364 82.436 21.364 82.7V106.1C21.364 106.34 21.28 106.556 21.112 106.748C20.944 106.916 20.728 107 20.464 107H16.612C16.228 107 15.94 106.904 15.748 106.712C15.58 106.52 15.472 106.388 15.424 106.316L6.64 92.996V106.1C6.64 106.364 6.556 106.58 6.388 106.748C6.22 106.916 6.004 107 5.74 107H1.42ZM36.943 107.36C34.783 107.36 32.887 107.012 31.255 106.316C29.647 105.596 28.399 104.504 27.511 103.04C26.623 101.552 26.179 99.668 26.179 97.388V82.7C26.179 82.436 26.263 82.22 26.431 82.052C26.599 81.884 26.815 81.8 27.079 81.8H31.723C31.987 81.8 32.203 81.884 32.371 82.052C32.539 82.22 32.623 82.436 32.623 82.7V97.352C32.623 98.912 32.995 100.088 33.739 100.88C34.507 101.648 35.575 102.032 36.943 102.032C38.287 102.032 39.331 101.648 40.075 100.88C40.843 100.088 41.227 98.912 41.227 97.352V82.7C41.227 82.436 41.311 82.22 41.479 82.052C41.671 81.884 41.887 81.8 42.127 81.8H46.807C47.047 81.8 47.251 81.884 47.419 82.052C47.611 82.22 47.707 82.436 47.707 82.7V97.388C47.707 99.668 47.263 101.552 46.375 103.04C45.487 104.504 44.239 105.596 42.631 106.316C41.023 107.012 39.127 107.36 36.943 107.36ZM53.3809 107C53.1169 107 52.9009 106.916 52.7329 106.748C52.5649 106.58 52.4809 106.364 52.4809 106.1V82.7C52.4809 82.436 52.5649 82.22 52.7329 82.052C52.9009 81.884 53.1169 81.8 53.3809 81.8H58.1329C58.3729 81.8 58.5769 81.884 58.7449 82.052C58.9369 82.22 59.0329 82.436 59.0329 82.7V101.564H69.9049C70.1689 101.564 70.3849 101.66 70.5529 101.852C70.7449 102.02 70.8409 102.236 70.8409 102.5V106.1C70.8409 106.364 70.7449 106.58 70.5529 106.748C70.3849 106.916 70.1689 107 69.9049 107H53.3809ZM74.8614 107C74.5974 107 74.3814 106.916 74.2134 106.748C74.0454 106.58 73.9614 106.364 73.9614 106.1V82.7C73.9614 82.436 74.0454 82.22 74.2134 82.052C74.3814 81.884 74.5974 81.8 74.8614 81.8H79.6134C79.8534 81.8 80.0574 81.884 80.2254 82.052C80.4174 82.22 80.5134 82.436 80.5134 82.7V101.564H91.3854C91.6494 101.564 91.8654 101.66 92.0334 101.852C92.2254 102.02 92.3214 102.236 92.3214 102.5V106.1C92.3214 106.364 92.2254 106.58 92.0334 106.748C91.8654 106.916 91.6494 107 91.3854 107H74.8614Z" fill="#969eb0"/>
</svg>
